<svg width="124" height="94" viewBox="0 0 124 94" fill="none" xmlns="http://www.w3.org/2000/svg">
<path fill-rule="evenodd" clip-rule="evenodd" d="M93.9376 0C91.794 0 89.8132 1.1436 88.7414 3L80.9625 16.4735C79.8907 18.3299 79.8907 20.6171 80.9625 22.4735L84.1533 28H6C2.68629 28 0 30.6863 0 34V88C0 91.3137 2.68629 94 6 94H95C98.3137 94 101 91.3137 101 88V38.947H109.495C111.639 38.947 113.62 37.8034 114.692 35.947L122.47 22.4735C123.542 20.6171 123.542 18.3299 122.47 16.4735L114.692 3C113.62 1.14359 111.639 0 109.495 0H93.9376ZM20.7273 74.0344V82.7617H12V74.0344V65.3072V56.5799V47.8526V39.1254H20.7273H29.4545V47.8526H20.7273V56.5799V65.3072V74.0344ZM38.1818 47.8526V56.5799V65.3072V74.0344V82.7617H29.4545V74.0344V65.3072V56.5799V47.8526H38.1818ZM46.9091 47.8526H38.1818V39.1254H46.9091V47.8526ZM46.9091 47.8526H55.6364V56.5799V65.3072V74.0344V82.7617H46.9091V74.0344V65.3072V56.5799V47.8526ZM64.4062 39.1254H73.1335H81.8608H90.5881V47.8526V56.5799V65.3072H81.8608H73.1335V74.0344H81.8608H90.5881V82.7617H81.8608H73.1335H64.4062V74.0344V65.3072V56.5799H73.1335H81.8608V47.8526H73.1335H64.4062V39.1254ZM93.32 29.1377L94.408 31.7617H110.568V26.2897H102.797L105.032 23.8577C105.693 23.1324 106.269 22.4497 106.76 21.8097C107.251 21.1484 107.667 20.5297 108.008 19.9537C108.349 19.3564 108.627 18.8017 108.84 18.2897C109.053 17.7777 109.203 17.2871 109.288 16.8177C109.395 16.3271 109.448 15.8684 109.448 15.4417C109.448 14.1191 109.117 12.9671 108.456 11.9857C107.795 10.9831 106.909 10.2044 105.8 9.64972C104.691 9.09505 103.464 8.80705 102.12 8.78572C100.861 8.76438 99.656 9.03105 98.504 9.58572C97.3733 10.1404 96.3707 10.9084 95.496 11.8897C94.6213 12.8497 93.9493 13.9484 93.48 15.1857L98.12 17.6177C98.4827 16.9137 98.8347 16.3484 99.176 15.9217C99.5387 15.4737 99.912 15.1537 100.296 14.9617C100.68 14.7484 101.085 14.6417 101.512 14.6417C102.003 14.6417 102.397 14.7271 102.696 14.8977C103.016 15.0471 103.251 15.2497 103.4 15.5057C103.549 15.7404 103.624 16.0071 103.624 16.3057C103.624 16.6897 103.496 17.1484 103.24 17.6817C102.984 18.1937 102.643 18.7271 102.216 19.2817C101.811 19.8151 101.384 20.3484 100.936 20.8817C100.509 21.3937 100.104 21.8524 99.72 22.2577L93.32 29.1377Z" fill="#073E65"/>
</svg>
