<svg width="428" height="371" viewBox="0 0 428 371" fill="none" xmlns="http://www.w3.org/2000/svg">
<path d="M276.212 86.5227L285.449 121.122C296.527 162.618 328.939 195.03 370.435 206.108L405.034 215.345C407.013 215.873 407.013 218.681 405.034 219.21L370.435 228.447C328.939 239.525 296.527 271.937 285.449 313.433L276.212 348.032C275.683 350.011 272.875 350.011 272.347 348.032L263.11 313.433C252.032 271.937 219.62 239.525 178.123 228.447L143.525 219.21C141.546 218.681 141.546 215.873 143.525 215.345L178.123 206.108C219.62 195.03 252.032 162.618 263.11 121.122L272.347 86.5227C272.875 84.5439 275.683 84.5439 276.212 86.5227Z" fill="#70B6E8" fill-opacity="0.6" stroke="#70B6E8" stroke-width="8"/>
<path d="M183.432 22.7454L192.669 57.3442C203.748 98.8407 236.159 131.252 277.656 142.331L312.255 151.568C314.233 152.096 314.233 154.904 312.255 155.432L277.656 164.669C236.159 175.748 203.748 208.159 192.669 249.656L183.432 284.255C182.904 286.233 180.096 286.233 179.568 284.255L170.331 249.656C159.252 208.159 126.841 175.748 85.3442 164.669L50.7454 155.432C48.7665 154.904 48.7665 152.096 50.7454 151.568L85.3442 142.331C126.841 131.252 159.252 98.8407 170.331 57.3442L179.568 22.7454C180.096 20.7665 182.904 20.7665 183.432 22.7454Z" fill="#70B6E8" fill-opacity="0.6" stroke="#70B6E8" stroke-width="8"/>
<path d="M290.74 46.5C296.687 44.3889 301.389 39.6874 303.5 33.74C305.611 39.6874 310.313 44.3889 316.26 46.5C310.313 48.6111 305.611 53.3126 303.5 59.26C301.389 53.3126 296.687 48.6111 290.74 46.5Z" fill="#70B6E8" fill-opacity="0.6" stroke="#70B6E8" stroke-width="8"/>
<path d="M22.8431 105.5C25.1458 104.087 27.0868 102.146 28.5 99.8431C29.9132 102.146 31.8542 104.087 34.1569 105.5C31.8542 106.913 29.9132 108.854 28.5 111.157C27.0868 108.854 25.1458 106.913 22.8431 105.5Z" fill="#70B6E8" fill-opacity="0.6" stroke="#70B6E8" stroke-width="8"/>
</svg>
